<svg width="200" height="327" viewBox="0 0 200 327" fill="none" xmlns="http://www.w3.org/2000/svg">
<g clip-path="url(#clip0_2_4)">
<rect x="10" y="200" width="10" height="10" fill="#0C0000"/>
<rect y="50" width="10" height="150" fill="#0C0000"/>
<rect x="10" y="40" width="10" height="10" fill="#0C0000"/>
<rect x="20" y="30" width="10" height="10" fill="#0C0000"/>
<rect x="30" y="20" width="10" height="10" fill="#0C0000"/>
<rect x="40" y="10" width="30" height="10" fill="#0C0000"/>
<rect x="70" width="60" height="10" fill="#0C0000"/>
<rect x="130" y="10" width="30" height="10" fill="#0C0000"/>
<rect x="160" y="20" width="10" height="10" fill="#0C0000"/>
<rect x="170" y="30" width="10" height="10" fill="#0C0000"/>
<rect x="180" y="40" width="10" height="10" fill="#0C0000"/>
<rect x="190" y="50" width="10" height="150" fill="#0C0000"/>
<rect x="20" y="210" width="10" height="10" fill="#0C0000"/>
<rect x="30" y="220" width="20" height="10" fill="#0C0000"/>
<rect x="50" y="210" width="10" height="10" fill="#0C0000"/>
<rect x="60" y="200" width="20" height="10" fill="#0C0000"/>
<rect x="80" y="210" width="10" height="10" fill="#0C0000"/>
<rect x="90" y="220" width="20" height="10" fill="#0C0000"/>
<rect x="120" y="200" width="20" height="10" fill="#0C0000"/>
<rect x="150" y="220" width="20" height="10" fill="#0C0000"/>
<rect x="140" y="210" width="10" height="10" fill="#0C0000"/>
<rect x="110" y="210" width="10" height="10" fill="#0C0000"/>
<rect x="170" y="210" width="10" height="10" fill="#0C0000"/>
<rect x="180" y="200" width="10" height="10" fill="#0C0000"/>
<rect x="20" y="50" width="20" height="150" fill="#0C0000"/>
<rect x="30" y="40" width="20" height="30" fill="#0C0000"/>
<rect x="150" y="40" width="20" height="30" fill="#0C0000"/>
<rect x="40" y="30" width="120" height="40" fill="#0C0000"/>
<rect x="70" y="20" width="60" height="40" fill="#0C0000"/>
<rect x="50" y="70" width="130" height="10" fill="#0C0000"/>
<rect x="90" y="90" width="20" height="10" fill="#0C0000"/>
<rect x="170" y="50" width="10" height="20" fill="#0C0000"/>
<rect x="70" y="80" width="110" height="10" fill="#0C0000"/>
<rect x="40" y="80" width="10" height="30" fill="#0C0000"/>
<rect x="50" y="90" width="20" height="10" fill="#0C0000"/>
<rect x="50" y="90" width="20" height="10" fill="#0C0000"/>
<rect x="50" y="110" width="20" height="10" fill="#0C0000"/>
<rect x="70" y="100" width="110" height="20" fill="#0C0000"/>
<rect x="40" y="120" width="140" height="70" fill="#0C0000"/>
<rect x="160" y="90" width="20" height="10" fill="#0C0000"/>
<rect x="30" y="200" width="20" height="10" fill="#0C0000"/>
<rect x="90" y="200" width="20" height="10" fill="#0C0000"/>
<rect x="150" y="200" width="20" height="10" fill="#0C0000"/>
<rect x="40" y="190" width="20" height="10" fill="#0C0000"/>
<rect x="100" y="190" width="20" height="10" fill="#0C0000"/>
<rect x="80" y="190" width="20" height="10" fill="#0C0000"/>
<rect x="160" y="190" width="20" height="10" fill="#0C0000"/>
<rect x="140" y="190" width="20" height="10" fill="#0C0000"/>
<path d="M160.983 323.194H160.94L155.252 322.877C154.863 322.863 154.791 322.69 154.791 322.459V322.387L154.892 320.631C154.906 320.357 155.036 320.184 155.194 320.055C156.159 319.234 157.541 317.736 157.541 317.679C157.541 317.65 157.498 317.636 157.44 317.636L155.669 317.549C155.511 317.549 155.18 317.448 155.18 317.146V317.132L155.28 315.288C155.295 314.972 155.482 314.799 155.727 314.799H155.756L160.81 315.072C160.969 315.072 161.545 315.101 161.545 315.591V315.634L161.444 317.362C161.429 317.636 161.329 317.88 161.127 318.096C160.724 318.543 159.874 319.363 159.082 320.155C159.024 320.213 159.01 320.242 159.01 320.271C159.01 320.299 159.039 320.314 159.096 320.314L161.084 320.4C161.401 320.415 161.545 320.616 161.545 320.861V320.904L161.444 322.747C161.429 323.007 161.314 323.194 160.983 323.194Z" fill="black"/>
<path d="M146.4 327.11L144.312 326.304C144.096 326.218 143.995 326.102 143.995 325.958C143.995 325.858 144.039 325.757 144.111 325.656L146.371 322.301C146.328 322.258 146.3 322.186 146.256 322.099L143.563 316.008C143.52 315.908 143.491 315.821 143.491 315.749C143.491 315.548 143.664 315.418 143.88 315.36L146.17 314.684C146.227 314.669 146.285 314.655 146.343 314.655C146.602 314.655 146.789 314.842 146.89 315.087L148.604 318.96C149.453 317.679 150.274 316.397 150.98 315.288C151.066 315.144 151.167 315.058 151.325 315.058C151.412 315.058 151.541 315.087 151.685 315.173L153.831 316.282C154.004 316.368 154.09 316.469 154.09 316.599C154.09 316.815 152.996 319.767 147.106 326.923C146.962 327.082 146.832 327.168 146.66 327.168C146.588 327.168 146.501 327.154 146.4 327.11Z" fill="black"/>
<path d="M142.636 322.099L140.533 323.208C140.361 323.309 140.231 323.352 140.116 323.352C139.972 323.352 139.842 323.28 139.684 323.107L138.244 321.437C137.553 321.97 136.789 322.488 136.228 322.877C136.069 322.978 135.94 323.05 135.796 323.05C135.709 323.05 135.608 323.021 135.508 322.935L133.808 321.567C133.65 321.437 133.578 321.307 133.578 321.192C133.578 321.091 133.621 320.991 133.736 320.89C134.226 320.458 135.162 319.651 136.012 318.859L134.096 316.628C133.981 316.498 133.938 316.383 133.938 316.282C133.938 316.138 134.053 316.008 134.226 315.922L136.401 314.799C136.516 314.741 136.617 314.712 136.717 314.712C136.905 314.712 137.077 314.813 137.207 314.972L138.589 316.584L140.087 315.072C140.188 314.972 140.289 314.9 140.418 314.9C140.533 314.9 140.663 314.957 140.821 315.087L142.708 316.584C142.838 316.685 142.895 316.772 142.895 316.872C142.895 317.362 141.196 319.003 140.908 319.277L142.766 321.423C142.866 321.538 142.91 321.639 142.91 321.739C142.91 321.883 142.809 322.013 142.636 322.099Z" fill="black"/>
<path d="M132.206 321.466C132.206 322.459 131.4 323.266 130.406 323.266C129.398 323.266 128.592 322.459 128.592 321.466C128.592 320.472 129.398 319.651 130.406 319.651C131.4 319.651 132.206 320.472 132.206 321.466Z" fill="black"/>
<path d="M126.616 320.962L125.867 322.776C125.752 323.05 125.623 323.194 125.407 323.194C125.363 323.194 125.32 323.194 125.277 323.179C122.959 322.719 122.152 321.451 122.08 317.808L121 317.751C120.842 317.736 120.712 317.592 120.712 317.434L120.885 315.044C120.899 314.885 121.029 314.756 121.202 314.756L122.123 314.813C122.152 314.266 122.181 313.676 122.224 313.056C122.239 312.884 122.267 312.61 122.642 312.61H122.699L125.421 312.74C125.666 312.754 125.781 312.898 125.781 313.143C125.752 313.748 125.709 314.381 125.666 314.986L126.659 315.044C126.818 315.044 126.947 315.188 126.947 315.36L126.775 317.751C126.76 317.895 126.645 318.024 126.487 318.024H126.458L125.507 317.981C125.507 319.291 125.68 320.285 126.314 320.559C126.472 320.631 126.645 320.688 126.645 320.847C126.645 320.875 126.631 320.919 126.616 320.962Z" fill="black"/>
<path d="M119.99 318.903C119.99 321.711 117.139 323.28 115.094 323.28C112.747 323.28 110.688 321.581 110.688 319.047C110.688 316.08 112.905 314.54 115.44 314.54C118.622 314.54 119.99 317.031 119.99 318.903ZM115.44 320.53C116.462 320.53 116.923 319.695 116.923 318.874C116.923 318.6 116.865 317.204 115.397 317.204C114.187 317.204 113.841 318.226 113.841 318.874C113.841 319.867 114.619 320.53 115.44 320.53Z" fill="black"/>
<path d="M103.125 322.978L100.72 323.107C100.562 323.107 100.418 322.992 100.403 322.819L99.7985 311.055V311.026C99.7985 310.882 99.9281 310.753 100.072 310.738L102.952 310.594H102.981C103.139 310.594 103.255 310.724 103.269 310.882L103.471 314.842C104.018 314.669 104.608 314.583 105.213 314.583C107.978 314.583 109.792 316.268 109.792 318.859C109.792 321.48 107.503 323.323 104.983 323.323C104.363 323.323 103.744 323.208 103.125 322.978ZM103.615 317.607L103.773 320.487C104.018 320.559 104.248 320.587 104.479 320.587C105.487 320.587 106.25 319.896 106.25 318.917C106.25 318.298 105.947 317.319 104.767 317.319C104.349 317.319 103.931 317.448 103.615 317.607Z" fill="black"/>
<path d="M95.1295 323.309H94.9567C91.6877 323.309 90.0461 321.077 90.0461 318.888C90.0461 316.829 91.5005 314.669 94.7839 314.669C98.3552 314.669 98.5136 317.852 98.5136 318.327C98.5136 318.989 98.24 319.536 97.3904 319.824C96.7135 320.055 95.6479 320.213 94.8991 320.242C94.6687 320.242 94.5966 320.141 94.539 319.968C94.3662 319.493 94.0926 318.557 94.0926 318.499C94.0926 318.341 94.2078 318.269 94.395 318.226C95.1439 318.053 95.2447 318.024 95.2447 317.823C95.2447 317.693 94.9711 317.232 94.3662 317.232C93.675 317.232 93.099 317.837 93.099 318.73C93.099 319.752 93.8478 320.904 95.6479 320.904C95.7487 320.904 95.8639 320.904 95.9647 320.89H95.9935C96.1951 320.89 96.4399 321.019 96.4399 321.264C96.4399 321.408 96.0655 322.387 95.8495 322.877C95.7343 323.107 95.5471 323.309 95.1295 323.309Z" fill="black"/>
<path d="M89.3496 321.984L87.9815 323.107C87.8231 323.237 87.6791 323.28 87.5495 323.28C87.4919 323.28 84.8278 322.791 84.8278 319.867C84.8278 318.125 84.0214 317.506 82.9846 317.506H82.9126V322.733C82.9126 322.906 82.783 323.035 82.6246 323.035H79.7445C79.5717 323.035 79.442 322.906 79.442 322.733V310.954C79.442 310.796 79.5717 310.652 79.7445 310.652H82.6246C82.783 310.652 82.9126 310.796 82.9126 310.954V314.698C83.0854 314.684 83.2582 314.684 83.4166 314.684C86.1239 314.684 88.284 316.296 88.3272 319.147C88.3416 320.083 88.5288 320.803 89.2344 321.365C89.3208 321.437 89.4792 321.581 89.4792 321.739C89.4792 321.811 89.4504 321.898 89.3496 321.984Z" fill="black"/>
<path d="M77.438 320.962L76.6892 322.776C76.574 323.05 76.4444 323.194 76.2284 323.194C76.1852 323.194 76.142 323.194 76.0988 323.179C73.7803 322.719 72.9739 321.451 72.9019 317.808L71.8218 317.751C71.6634 317.736 71.5338 317.592 71.5338 317.434L71.7066 315.044C71.721 314.885 71.8506 314.756 72.0234 314.756L72.9451 314.813C72.9739 314.266 73.0027 313.676 73.0459 313.056C73.0603 312.884 73.0891 312.61 73.4635 312.61H73.5211L76.2428 312.74C76.4876 312.754 76.6028 312.898 76.6028 313.143C76.574 313.748 76.5308 314.381 76.4876 314.986L77.4812 315.044C77.6396 315.044 77.7692 315.188 77.7692 315.36L77.5964 317.751C77.582 317.895 77.4668 318.024 77.3084 318.024H77.2796L76.3292 317.981C76.3292 319.291 76.502 320.285 77.1356 320.559C77.294 320.631 77.4668 320.688 77.4668 320.847C77.4668 320.875 77.4524 320.919 77.438 320.962Z" fill="black"/>
<path d="M66.1011 323.28H65.9427C65.6259 323.28 65.4819 323.223 65.3955 322.978L64.7619 321.307C64.7475 321.264 64.7331 321.221 64.7331 321.192C64.7331 320.976 65.0211 320.947 65.1939 320.947C66.0435 320.933 66.4467 320.53 66.4467 320.184C66.4467 319.997 66.2595 319.767 66.0579 319.507L65.6691 319.075C65.0355 318.355 64.7763 317.736 64.7763 317.189C64.7763 315.562 67.1236 314.698 69.01 314.698C69.5716 314.698 69.7157 314.756 69.8165 315.015L70.4645 316.685C70.4933 316.743 70.4933 316.786 70.4933 316.829C70.4933 316.988 70.3349 317.045 70.1477 317.045H70.0901C69.226 317.045 68.8948 317.333 68.8948 317.621C68.8948 317.866 69.1108 318.139 69.658 318.744C70.3205 319.464 70.6085 320.112 70.6085 320.659C70.6085 322.359 68.0308 323.28 66.1011 323.28Z" fill="black"/>
<path d="M57.0266 322.978L54.6217 323.107C54.4633 323.107 54.3193 322.992 54.3049 322.819L53.7001 311.055V311.026C53.7001 310.882 53.8297 310.753 53.9737 310.738L56.8538 310.594H56.8826C57.041 310.594 57.1562 310.724 57.1706 310.882L57.3722 314.842C57.9194 314.669 58.5098 314.583 59.1146 314.583C61.8795 314.583 63.694 316.268 63.694 318.859C63.694 321.48 61.4043 323.323 58.8842 323.323C58.265 323.323 57.6458 323.208 57.0266 322.978ZM57.5162 317.607L57.6746 320.487C57.9194 320.559 58.1498 320.587 58.3802 320.587C59.3882 320.587 60.1515 319.896 60.1515 318.917C60.1515 318.298 59.8491 317.319 58.6682 317.319C58.2506 317.319 57.833 317.448 57.5162 317.607Z" fill="black"/>
<path d="M51.8475 322.963L48.9674 323.107H48.9386C48.7802 323.107 48.665 322.978 48.6506 322.819L48.2905 315.807C48.2905 315.634 48.4057 315.504 48.5785 315.49L51.4586 315.346H51.4874C51.6314 315.346 51.7611 315.476 51.7611 315.62L52.1211 322.647V322.675C52.1211 322.819 51.9915 322.949 51.8475 322.963ZM51.9915 312.984C51.9915 314.151 51.041 315.101 49.8746 315.101C48.6938 315.101 47.7433 314.151 47.7433 312.984C47.7433 311.804 48.6938 310.853 49.8746 310.853C51.041 310.853 51.9915 311.804 51.9915 312.984Z" fill="black"/>
<path d="M42.9589 323.021H41.5044C41.2164 323.021 40.9572 322.963 40.7988 322.69L37.5011 316.44C37.4291 316.296 37.4003 316.181 37.4003 316.08C37.4003 315.922 37.4867 315.821 37.6451 315.749C37.9907 315.591 39.8772 314.813 40.1796 314.813C40.3956 314.813 40.5396 314.914 40.6116 315.058L42.2244 318.615C42.2532 318.687 42.2964 318.715 42.3253 318.715C42.3685 318.715 42.3973 318.687 42.4405 318.6C42.9445 317.434 43.7365 315.317 43.8373 315.072C43.9237 314.885 44.0677 314.799 44.2549 314.799C44.3557 314.799 44.4565 314.813 44.5717 314.856L46.5014 315.447C46.8326 315.548 46.9622 315.692 46.9622 315.893C46.9622 316.124 45.3782 321.279 43.6069 322.805C43.4629 322.92 43.2181 323.021 42.9589 323.021Z" fill="black"/>
<path d="M170.797 304.422L169.904 306.164C169.774 306.409 169.63 306.538 169.443 306.538C169.299 306.538 168.291 306.308 167.571 305.631C166.822 306.02 166.045 306.193 165.31 306.193C162.905 306.193 160.832 304.35 160.832 302.031C160.832 300.303 162.056 297.812 164.907 297.812C165.627 297.812 166.333 297.971 166.894 298.215C166.981 298.115 167.11 298.071 167.283 298.071H167.355L169.846 298.287C170.221 298.316 170.322 298.503 170.322 298.676V298.748C170.12 300.059 169.918 301.311 169.918 302.262C169.918 303.126 170.077 303.745 170.538 303.99C170.682 304.062 170.84 304.148 170.84 304.292C170.84 304.321 170.826 304.364 170.797 304.422ZM166.577 303.37C166.534 302.996 166.505 302.593 166.505 302.146C166.505 301.772 166.52 301.383 166.549 300.951C166.376 300.663 165.987 300.462 165.569 300.462C164.662 300.462 164.158 301.34 164.158 302.074C164.158 302.881 164.72 303.572 165.656 303.572C165.929 303.572 166.246 303.514 166.577 303.37Z" fill="black"/>
<path d="M160.222 305.185L158.854 306.308C158.695 306.437 158.551 306.481 158.421 306.481C158.364 306.481 155.7 305.991 155.7 303.068C155.7 301.326 154.893 300.706 153.857 300.706H153.785V305.933C153.785 306.106 153.655 306.236 153.497 306.236H150.616C150.444 306.236 150.314 306.106 150.314 305.933V294.155C150.314 293.996 150.444 293.852 150.616 293.852H153.497C153.655 293.852 153.785 293.996 153.785 294.155V297.899C153.957 297.884 154.13 297.884 154.289 297.884C156.996 297.884 159.156 299.497 159.199 302.348C159.214 303.284 159.401 304.004 160.106 304.566C160.193 304.638 160.351 304.782 160.351 304.94C160.351 305.012 160.322 305.098 160.222 305.185Z" fill="black"/>
<path d="M149.118 304.263L148.34 306.063C148.225 306.337 148.081 306.481 147.865 306.481C147.865 306.481 146.626 306.351 145.82 305.545C145.014 305.991 144.178 306.193 143.386 306.193C140.981 306.193 138.922 304.35 138.922 302.031C138.922 300.275 140.146 297.812 142.998 297.812C143.617 297.812 144.236 297.942 144.754 298.129L145.014 294.27C145.028 294.025 145.258 293.881 145.546 293.881L148.038 293.924C148.441 293.924 148.556 294.112 148.556 294.313V294.356C148.527 294.543 148.067 300.548 148.067 301.542C148.067 302.722 148.239 303.601 148.83 303.86C148.988 303.932 149.147 304.004 149.147 304.134C149.147 304.177 149.147 304.22 149.118 304.263ZM144.798 303.298C144.697 302.65 144.639 301.887 144.639 300.966C144.481 300.678 144.078 300.476 143.646 300.476C142.782 300.476 142.234 301.268 142.234 302.074C142.234 302.881 142.796 303.572 143.718 303.572C144.034 303.572 144.394 303.486 144.798 303.298Z" fill="black"/>
<path d="M138.36 304.263L137.582 306.063C137.467 306.337 137.323 306.481 137.107 306.481C137.107 306.481 135.868 306.351 135.062 305.545C134.255 305.991 133.42 306.193 132.628 306.193C130.223 306.193 128.164 304.35 128.164 302.031C128.164 300.275 129.388 297.812 132.239 297.812C132.859 297.812 133.478 297.942 133.996 298.129L134.255 294.27C134.27 294.025 134.5 293.881 134.788 293.881L137.28 293.924C137.683 293.924 137.798 294.112 137.798 294.313V294.356C137.769 294.543 137.308 300.548 137.308 301.542C137.308 302.722 137.481 303.601 138.072 303.86C138.23 303.932 138.388 304.004 138.388 304.134C138.388 304.177 138.388 304.22 138.36 304.263ZM134.039 303.298C133.939 302.65 133.881 301.887 133.881 300.966C133.723 300.678 133.319 300.476 132.887 300.476C132.023 300.476 131.476 301.268 131.476 302.074C131.476 302.881 132.038 303.572 132.959 303.572C133.276 303.572 133.636 303.486 134.039 303.298Z" fill="black"/>
<path d="M126.657 306.164L123.777 306.308H123.748C123.59 306.308 123.475 306.178 123.46 306.02L123.1 299.007C123.1 298.835 123.215 298.705 123.388 298.691L126.268 298.547H126.297C126.441 298.547 126.571 298.676 126.571 298.82L126.931 305.847V305.876C126.931 306.02 126.801 306.149 126.657 306.164ZM126.801 296.185C126.801 297.351 125.851 298.302 124.684 298.302C123.503 298.302 122.553 297.351 122.553 296.185C122.553 295.004 123.503 294.054 124.684 294.054C125.851 294.054 126.801 295.004 126.801 296.185Z" fill="black"/>
<path d="M115.108 306.121L114.633 303.961C114.618 303.932 114.618 303.889 114.618 303.86C114.618 303.644 114.834 303.572 114.921 303.572H114.978C115.958 303.572 117.023 303.054 117.023 302.146C117.023 301.671 116.764 301.239 115.986 300.03C115.396 299.137 115.137 298.331 115.137 297.625C115.137 295.35 117.729 294.068 120.148 294.068C120.71 294.068 120.998 294.126 121.084 294.428L121.588 296.559C121.603 296.603 121.603 296.646 121.603 296.675C121.603 296.905 121.387 296.991 121.3 296.991H121.214C120.278 296.991 119.399 297.337 119.399 298.158C119.399 298.647 119.759 299.324 120.422 300.26C121.027 301.153 121.286 301.959 121.286 302.679C121.286 305.07 118.42 306.481 115.929 306.481C115.785 306.481 115.655 306.481 115.511 306.466C115.324 306.466 115.151 306.308 115.108 306.121Z" fill="black"/>
<path d="M106.956 306.207L104.133 306.049C103.442 306.265 102.765 306.38 102.132 306.38C100.13 306.38 98.5746 305.257 98.445 302.578C98.4018 301.642 98.373 299.857 98.3586 298.935C98.3586 298.345 98.5602 298.23 98.733 298.215C98.7474 298.187 100.979 298.028 101.224 298.028C101.512 298.028 101.628 298.172 101.642 298.345C101.728 299.31 101.757 300.087 101.844 301.801C101.901 303.039 102.333 303.471 102.938 303.471C103.226 303.471 103.572 303.37 103.932 303.198L104.191 298.244C104.205 298.071 104.349 297.956 104.508 297.956L107.373 298.115C107.546 298.115 107.661 298.259 107.661 298.431L107.272 305.919C107.258 306.092 107.114 306.207 106.956 306.207Z" fill="black"/>
<path d="M97.3741 305.185L96.006 306.308C95.8476 306.437 95.7036 306.481 95.574 306.481C95.5164 306.481 92.8523 305.991 92.8523 303.068C92.8523 301.326 92.0459 300.706 91.0091 300.706H90.9371V305.933C90.9371 306.106 90.8075 306.236 90.649 306.236H87.769C87.5961 306.236 87.4665 306.106 87.4665 305.933V294.155C87.4665 293.996 87.5961 293.852 87.769 293.852H90.649C90.8075 293.852 90.9371 293.996 90.9371 294.155V297.899C91.1099 297.884 91.2827 297.884 91.4411 297.884C94.1484 297.884 96.3084 299.497 96.3516 302.348C96.366 303.284 96.5532 304.004 97.2589 304.566C97.3453 304.638 97.5037 304.782 97.5037 304.94C97.5037 305.012 97.4749 305.098 97.3741 305.185Z" fill="black"/>
<path d="M79.1984 306.178L76.7935 306.308C76.6351 306.308 76.4911 306.193 76.4767 306.02L75.8719 294.255V294.227C75.8719 294.083 76.0015 293.953 76.1455 293.939L79.0256 293.795H79.0544C79.2128 293.795 79.328 293.924 79.3424 294.083L79.544 298.043C80.0912 297.87 80.6817 297.783 81.2865 297.783C84.0514 297.783 85.8658 299.468 85.8658 302.06C85.8658 304.681 83.5762 306.524 81.0561 306.524C80.4369 306.524 79.8176 306.409 79.1984 306.178ZM79.688 300.807L79.8464 303.687C80.0912 303.759 80.3216 303.788 80.5521 303.788C81.5601 303.788 82.3233 303.097 82.3233 302.118C82.3233 301.498 82.0209 300.519 80.8401 300.519C80.4225 300.519 80.0048 300.649 79.688 300.807Z" fill="black"/>
<path d="M74.0193 306.164L71.1392 306.308H71.1104C70.952 306.308 70.8368 306.178 70.8224 306.02L70.4624 299.007C70.4624 298.835 70.5776 298.705 70.7504 298.691L73.6305 298.547H73.6593C73.8033 298.547 73.9329 298.676 73.9329 298.82L74.2929 305.847V305.876C74.2929 306.02 74.1633 306.149 74.0193 306.164ZM74.1633 296.185C74.1633 297.351 73.2129 298.302 72.0464 298.302C70.8656 298.302 69.9152 297.351 69.9152 296.185C69.9152 295.004 70.8656 294.054 72.0464 294.054C73.2129 294.054 74.1633 295.004 74.1633 296.185Z" fill="black"/>
<path d="M63.9421 306.207H61.854C61.5516 306.207 61.3068 306.063 61.2348 305.933L56.3818 295.926C56.353 295.868 56.3387 295.796 56.3387 295.71C56.3387 295.566 56.3963 295.422 56.5547 295.35L59.1899 294.227C59.2764 294.198 59.3484 294.183 59.4204 294.183C59.6508 294.183 59.838 294.313 59.8812 294.414L62.8909 301.282C62.9341 301.383 62.9629 301.426 63.0061 301.426C63.0637 301.426 63.1069 301.369 63.1789 301.239C63.5965 300.404 65.6126 295.019 65.8286 294.486C65.9006 294.313 66.0158 294.212 66.1886 294.212C66.2606 294.212 66.3326 294.227 66.419 294.255L68.8095 295.033C69.0687 295.119 69.1839 295.278 69.1839 295.494C69.1839 295.854 66.8942 303.745 64.4461 306.034C64.3741 306.106 64.1581 306.207 63.9421 306.207Z" fill="black"/>
<path d="M42.5819 310.311L40.4938 309.505C40.2778 309.418 40.177 309.303 40.177 309.159C40.177 309.058 40.2202 308.957 40.2922 308.857L42.5531 305.502C42.5099 305.458 42.4811 305.386 42.4379 305.3L39.745 299.209C39.7018 299.108 39.673 299.022 39.673 298.95C39.673 298.748 39.8458 298.619 40.0618 298.561L42.3515 297.884C42.4091 297.87 42.4667 297.855 42.5243 297.855C42.7835 297.855 42.9707 298.043 43.0715 298.287L44.7852 302.161C45.6348 300.879 46.4556 299.598 47.1613 298.489C47.2477 298.345 47.3485 298.259 47.5069 298.259C47.5933 298.259 47.7229 298.287 47.8669 298.374L50.0126 299.483C50.1854 299.569 50.2718 299.67 50.2718 299.799C50.2718 300.015 49.1773 302.967 43.2875 310.124C43.1435 310.282 43.0139 310.369 42.8411 310.369C42.7691 310.369 42.6827 310.354 42.5819 310.311Z" fill="black"/>
<path d="M32.3265 306.178L29.9216 306.308C29.7632 306.308 29.6192 306.193 29.6048 306.02L29 294.255V294.227C29 294.083 29.1296 293.953 29.2736 293.939L32.1537 293.795H32.1825C32.3409 293.795 32.4561 293.924 32.4705 294.083L32.6721 298.043C33.2193 297.87 33.8098 297.783 34.4146 297.783C37.1795 297.783 38.9939 299.468 38.9939 302.06C38.9939 304.681 36.7043 306.524 34.1842 306.524C33.565 306.524 32.9457 306.409 32.3265 306.178ZM32.8161 300.807L32.9745 303.687C33.2193 303.759 33.4498 303.788 33.6802 303.788C34.6882 303.788 35.4514 303.097 35.4514 302.118C35.4514 301.498 35.149 300.519 33.9682 300.519C33.5506 300.519 33.1329 300.649 32.8161 300.807Z" fill="black"/>
<path d="M152.895 279.76L148.648 280.761C147.807 280.959 147.01 280.97 146.359 280.28L132.428 264.302C132.119 263.931 131.955 263.615 131.886 263.32C131.777 262.858 131.96 262.504 132.373 262.185C133.273 261.484 138.246 257.915 139.129 257.707C139.759 257.558 140.249 257.753 140.559 258.124L147.717 267.399C147.85 267.59 147.996 267.644 148.081 267.624C148.207 267.595 148.271 267.491 148.338 267.209C149.006 263.456 149.862 256.73 149.988 255.946C150.111 255.34 150.472 254.988 151.019 254.86C151.313 254.79 151.617 254.763 151.983 254.81L158.024 255.205C159.061 255.272 159.538 255.603 159.677 256.192C159.836 256.864 158.759 273.007 154.638 278.683C154.297 279.119 153.652 279.582 152.895 279.76Z" fill="black"/>
<path d="M136.111 276.885C136.111 285.309 127.557 290.017 121.422 290.017C114.38 290.017 108.203 284.92 108.203 277.317C108.203 268.418 114.856 263.796 122.459 263.796C132.007 263.796 136.111 271.269 136.111 276.885ZM122.459 281.766C125.526 281.766 126.909 279.261 126.909 276.798C126.909 275.978 126.736 271.787 122.33 271.787C118.701 271.787 117.664 274.855 117.664 276.798C117.664 279.779 119.997 281.766 122.459 281.766Z" fill="black"/>
<path d="M109.878 267.897L105.406 271.281C104.987 271.631 104.356 271.75 103.915 271.478C103.768 271.387 103.629 271.2 103.55 270.999C103.228 270.039 102.19 268.841 100.903 268.048C99.9472 267.459 96.6118 265.707 94.1405 269.715C92.6214 272.179 93.389 274.885 95.7793 276.358C97.3606 277.333 99.6301 277.768 102.393 277.238C102.749 277.154 103.194 277.174 103.525 277.378C103.782 277.537 103.986 277.865 103.971 278.465C103.862 280.123 103.895 281.057 103.735 282.633C103.71 282.922 103.625 283.225 103.466 283.482C103.194 283.924 102.761 284.215 102.047 284.384C97.3227 285.379 93.0216 284.453 89.7119 282.412C83.6074 278.649 80.8317 271.051 84.822 264.579C89.9007 256.342 98.5464 257.054 104.614 260.795C108.696 263.311 110.64 266.743 110.074 267.662C110.028 267.736 109.96 267.846 109.878 267.897Z" fill="black"/>
<path d="M77.0239 282.858L68.5544 281.095L68.4708 281.073C68.011 280.953 67.7747 280.489 67.8529 280.019L72.1191 259.39C72.2499 258.888 72.6825 258.599 73.195 258.688L81.6645 260.451L81.7481 260.473C82.1662 260.582 82.4442 261.057 82.3352 261.474L78.0581 282.145L78.0363 282.229C77.9272 282.647 77.4528 282.925 77.0239 282.858ZM84.9998 254C84.1164 257.385 80.6377 259.424 77.2517 258.541C73.8239 257.647 71.7848 254.168 72.6682 250.783C73.5625 247.355 77.0412 245.316 80.469 246.21C83.855 247.094 85.8941 250.572 84.9998 254Z" fill="black"/>
<path d="M55.604 289.798L47.2503 292.055C46.84 292.19 46.3489 291.943 46.1999 291.492L46.1729 291.41L37.1152 258.461C37.0072 257.996 37.2545 257.505 37.6648 257.37L37.7468 257.343L44.7197 255.451C46.2671 254.212 47.9638 253.288 49.6868 252.719C56.907 250.336 65.1222 253.447 67.587 260.913C70.0517 268.379 66.3171 274.843 58.5635 277.402C56.8405 277.971 55.0773 278.28 53.3969 278.289L56.2357 288.679C56.3572 289.185 56.0963 289.635 55.604 289.798ZM48.9899 262.184L51.2472 270.537C52.2987 270.69 53.5967 270.626 54.7454 270.247C55.0736 270.138 59.0119 268.838 57.5222 264.326C56.5877 261.496 53.8044 260.231 50.9328 261.179C50.2764 261.395 49.6196 261.749 48.9899 262.184Z" fill="black"/>
</g>
<defs>
<clipPath id="clip0_2_4">
<rect width="200" height="327" fill="white"/>
</clipPath>
</defs>
</svg>
